<svg width="18.000000" height="19.300293" viewBox="0 0 18 19.3003" fill="none" xmlns="http://www.w3.org/2000/svg" xmlns:xlink="http://www.w3.org/1999/xlink">
	<desc>
			Created with Pixso.
	</desc>
	<defs/>
	<path d="M2.45 18.14C2.51 18.81 3.06 19.3 3.73 19.3L14.26 19.3C14.93 19.3 15.48 18.79 15.54 18.14L16.71 5.79L1.27 5.79L2.45 18.14Z" fill="#FFFFFF" fill-opacity="1.000000" fill-rule="nonzero"/>
	<path d="M16.72 1.92L11.58 1.92L11.58 1.28C11.58 0.56 11.01 0 10.3 0L7.72 0C7 0 6.43 0.56 6.43 1.28L6.43 1.92L1.27 1.92C0.56 1.92 0 2.49 0 3.2C0 3.92 0.56 4.48 1.27 4.48L16.72 4.48C17.43 4.48 18 3.92 18 3.2C18 2.49 17.43 1.92 16.72 1.92Z" fill="#FFFFFF" fill-opacity="1.000000" fill-rule="nonzero"/>
</svg>
