<svg width="22.000000" height="19.000000" viewBox="0 0 22 19" fill="none" xmlns="http://www.w3.org/2000/svg" xmlns:xlink="http://www.w3.org/1999/xlink">
	<desc>
			Created with Pixso.
	</desc>
	<defs/>
	<path d="M20.29 9.78C22.56 7.54 22.56 3.9 20.29 1.68C18.03 -0.57 14.34 -0.57 12.08 1.68L10.98 2.79L9.88 1.7C7.61 -0.57 3.92 -0.57 1.68 1.68C0.58 2.76 0 4.21 0 5.74C0 7.27 0.6 8.72 1.68 9.8L10.98 19L20.29 9.78ZM1.43 5.74C1.43 4.59 1.88 3.52 2.71 2.72C3.57 1.88 4.67 1.45 5.77 1.45C6.87 1.45 7.97 1.88 8.82 2.72L10.98 4.83L13.13 2.7C14.82 1.03 17.58 1.03 19.24 2.7C20.05 3.5 20.52 4.56 20.52 5.72C20.52 6.87 20.07 7.94 19.24 8.74L10.98 16.93L2.71 8.76C1.9 7.94 1.43 6.87 1.43 5.74Z" fill="#000000" fill-opacity="1.000000" fill-rule="nonzero"/>
</svg>
