<svg width="142.000000" height="33.000000" viewBox="0 0 142 33" fill="none" xmlns="http://www.w3.org/2000/svg" xmlns:xlink="http://www.w3.org/1999/xlink">
	<desc>
			Created with Pixso.
	</desc>
	<defs/>
	<path id="Vector" d="M135.45 0.67C135.45 1.04 135.13 1.34 134.73 1.34C134.34 1.34 134.02 1.04 134.02 0.67C134.02 0.3 134.34 0 134.73 0C135.13 0 135.45 0.3 135.45 0.67ZM108.23 8.89L107.17 8.89L107.17 0.26L110.12 0.26C112.17 0.26 113.09 1.38 113.09 2.91C113.09 4.05 112.57 4.95 111.45 5.33L113.43 8.89L112.2 8.89L110.36 5.52C110.29 5.52 110.21 5.52 110.14 5.52L108.23 5.52L108.23 8.89ZM108.23 1.19L108.23 4.58L110.1 4.58C111.5 4.58 112.05 3.94 112.05 2.91C112.05 1.87 111.5 1.19 110.09 1.19L108.23 1.19ZM124 2.34C125.3 2.34 126 2.95 126.32 3.87L125.42 4.12C125.24 3.68 124.88 3.2 124 3.2C123.2 3.2 122.6 3.6 122.6 4.16C122.6 4.65 122.95 4.91 123.73 5.1L124.7 5.33C125.87 5.62 126.44 6.18 126.44 7.09C126.44 8.2 125.4 9.02 123.88 9.02C122.54 9.02 121.63 8.44 121.39 7.34L122.35 7.1C122.53 7.8 123.04 8.15 123.87 8.15C124.8 8.15 125.4 7.69 125.4 7.14C125.4 6.69 125.09 6.38 124.43 6.23L123.34 5.97C122.14 5.7 121.6 5.1 121.6 4.21C121.6 3.11 122.62 2.34 124 2.34ZM130.27 2.34C131.57 2.34 132.27 2.95 132.59 3.87L131.69 4.12C131.51 3.68 131.15 3.2 130.27 3.2C129.47 3.2 128.87 3.6 128.87 4.16C128.87 4.65 129.22 4.91 130 5.1L130.97 5.33C132.14 5.62 132.71 6.18 132.71 7.09C132.71 8.2 131.67 9.02 130.15 9.02C128.81 9.02 127.9 8.44 127.66 7.34L128.62 7.1C128.8 7.8 129.31 8.15 130.13 8.15C131.07 8.15 131.67 7.69 131.67 7.14C131.67 6.69 131.36 6.38 130.7 6.23L129.61 5.97C128.4 5.7 127.87 5.1 127.87 4.21C127.87 3.11 128.89 2.34 130.27 2.34ZM140.94 8.01C140.73 8.43 140.14 9.04 139 9.04C137.75 9.04 136.76 8.32 136.76 7.05C136.76 5.57 138.09 5.3 139.3 5.15C140.5 5 140.99 5.04 140.99 4.56L140.99 4.53C140.99 3.7 140.53 3.21 139.61 3.21C138.65 3.21 138.13 3.72 137.9 4.19L136.95 3.85C137.46 2.67 138.59 2.34 139.58 2.34C140.41 2.34 142 2.57 142 4.63L142 8.89L140.99 8.89L140.99 8.01L140.94 8.01ZM117.15 8.01C117.9 8.01 118.84 7.46 118.84 6.24L118.84 2.42L119.84 2.42L119.84 8.89L118.84 8.89L118.84 7.79L118.77 7.79C118.46 8.45 117.81 8.97 116.82 8.97C115.6 8.97 114.71 8.18 114.71 6.53L114.71 2.42L115.72 2.42L115.72 6.46C115.72 7.41 116.31 8.01 117.15 8.01ZM135.23 8.89L134.22 8.89L134.22 2.42L135.23 2.42L135.23 8.89ZM137.77 7.1C137.77 7.79 138.35 8.15 139.15 8.15C140.34 8.15 140.99 7.36 140.99 6.55L140.99 5.64C140.82 5.84 139.68 5.96 139.25 6.01C138.47 6.11 137.77 6.34 137.77 7.1ZM0 32.6L0 6.73L4.79 6.73L13.12 26.84L13.43 26.84L21.77 6.73L26.56 6.73L26.56 32.6L22.8 32.6L22.8 13.88L22.56 13.88L14.84 32.57L11.72 32.57L4 13.87L3.75 13.87L3.75 32.6L0 32.6ZM78.23 13.2L82.26 13.2L82.26 16.23L78.23 16.23L78.23 26.91C78.23 29.09 79.34 29.5 80.58 29.5C81.2 29.5 81.67 29.38 81.93 29.33L82.62 32.45C82.17 32.62 81.35 32.84 80.14 32.86C77.13 32.92 74.41 31.22 74.41 27.71L74.41 27.69L74.41 16.23L71.53 16.23L71.53 13.2L74.41 13.2L74.41 8.55L78.23 8.55L78.23 13.2ZM49.31 27.75C48.44 30.91 45.41 33 41.13 33C35.34 33 31.78 29.05 31.78 23.03C31.78 17.07 35.39 12.95 40.86 12.95C45.31 12.95 49.55 15.69 49.55 22.7L49.55 24.04L35.59 24.04C35.69 27.78 37.89 29.87 41.16 29.87C43.34 29.87 45 28.94 45.69 27.11L49.31 27.75ZM61.08 12.95C65.32 12.95 67.71 14.92 68.51 17.94L65.04 18.54C64.59 17.24 63.49 15.94 61.12 15.94C58.95 15.94 57.32 16.99 57.32 18.48L57.32 18.49C57.32 18.5 57.32 18.51 57.32 18.52C57.32 19.82 58.26 20.53 60.4 21.03L63.52 21.74C67.12 22.56 68.89 24.25 68.89 26.99C68.89 30.51 65.6 33 60.86 33C56.45 33 53.56 31.06 52.92 27.63L56.62 27.07C57.08 28.98 58.55 29.95 60.84 29.95C63.34 29.95 64.96 28.78 64.96 27.27C64.96 26.06 64.08 25.23 62.19 24.81L58.87 24.09C55.18 23.28 53.5 21.45 53.5 18.7C53.5 15.26 56.64 12.95 61.08 12.95ZM103.7 22.99C103.7 28.99 100.08 33 94.55 33C89.01 33 85.39 28.99 85.39 22.99C85.39 16.95 89.01 12.95 94.55 12.95C100.08 12.95 103.7 16.95 103.7 22.99ZM40.88 16.07C37.78 16.07 35.76 18.46 35.6 21.21L45.81 21.21C45.79 18.24 43.85 16.07 40.88 16.07ZM89.25 22.98C89.25 26.7 90.94 29.82 94.56 29.82C98.15 29.82 99.84 26.7 99.84 22.98C99.84 19.26 98.15 16.11 94.56 16.11C90.94 16.11 89.25 19.26 89.25 22.98Z" fill="#FFFFFF" fill-opacity="1.000000" fill-rule="evenodd"/>
</svg>
